# xmcd
#
# Track frame offsets:
#	150
#	19340
#	36768
#	48628
#	63629
#	74203
#	90253
#	106742
#	120127
#	137755
#
# Disc length: 2046 seconds
#
# Revision: 3
# Processed by: cddbd v1.5.2PL0 Copyright (c) Steve Scherf et al.
# Submitted via: audiograbber 1.83.01
#
DISCID=8707fc0a
DTITLE=Various Artist - New Country - Volume 4 - Number 14
DYEAR=1997
DGENRE=Country
TTITLE0=Seconds Flat - Me And My Friend Heartache
TTITLE1=Ricky Skaggs - Hillbilly Highway
TTITLE2=Buddy Miller - Love Snuck Up
TTITLE3=Red Steagall and The Boys In The Bunkhouse - Dear Mama, I'm A Cowboy
TTITLE4=Tom T. Hall - Bill Monroe For Breakfast
TTITLE5=Wylie and The Wild West - Hello Heartache
TTITLE6=The Ex-Husbands - Johnny Walker Redneck
TTITLE7=Ruthie And The Wranglers - Gone But Not Forgotten
TTITLE8=Marge Calhoun - Believe In Love
TTITLE9=The Kinleys - Please
EXTD=
EXTT0=
EXTT1=
EXTT2=
EXTT3=
EXTT4=
EXTT5=
EXTT6=
EXTT7=
EXTT8=
EXTT9=
PLAYORDER=
